<?xml version="1.0" encoding="UTF-8" standalone="no"?>
<!DOCTYPE svg PUBLIC "-//W3C//DTD SVG 1.1//EN" "http://www.w3.org/Graphics/SVG/1.1/DTD/svg11.dtd">
<svg width="100%" height="100%" viewBox="0 0 120 27" version="1.1" xmlns="http://www.w3.org/2000/svg" xmlns:xlink="http://www.w3.org/1999/xlink" xml:space="preserve" xmlns:serif="http://www.serif.com/" style="fill-rule:evenodd;clip-rule:evenodd;stroke-linejoin:round;stroke-miterlimit:2;">
    <g>
        <path d="M6,0L114,0C117.324,0 120,2.676 120,6L120,21C120,24.324 117.324,27 114,27L6,27C2.676,27 0,24.324 0,21L0,6C0,2.676 2.676,0 6,0Z" style="fill:rgb(37,211,102);fill-rule:nonzero;"/>
        <g transform="matrix(1,0,0,1,1.07793,9.55997)">
            <text x="28.46px" y="7.719px" style="font-family:'Arial-BoldMT', 'Arial', sans-serif;font-weight:700;font-size:9px;fill:white;">Book on WhatsApp</text>
        </g>
        <path d="M16.34,6.594C18.156,6.602 19.906,7.312 21.215,8.57C22.555,9.855 23.328,11.578 23.398,13.434C23.465,15.246 22.828,17.027 21.629,18.387C20.312,19.879 18.48,20.738 16.504,20.793C16.434,20.797 16.367,20.797 16.301,20.797C15.234,20.797 14.18,20.555 13.223,20.098L9.504,20.922L9.492,20.922C9.461,20.922 9.434,20.895 9.441,20.863L10.066,17.102C9.531,16.125 9.234,15.02 9.199,13.898C9.145,12 9.832,10.199 11.137,8.816C12.484,7.387 14.332,6.594 16.305,6.594L16.34,6.594ZM16.301,7.824C16.246,7.824 16.188,7.824 16.132,7.828C12.895,7.918 10.34,10.629 10.434,13.863C10.461,14.852 10.738,15.82 11.238,16.668L11.344,16.852L10.879,19.402L13.402,18.805L13.594,18.906C14.426,19.336 15.359,19.562 16.301,19.562L16.469,19.562C19.703,19.469 22.262,16.762 22.168,13.527C22.074,10.348 19.461,7.824 16.301,7.824ZM13.848,10.262C13.965,10.266 14.086,10.27 14.188,10.277C14.316,10.289 14.453,10.297 14.578,10.598C14.727,10.957 15.047,11.848 15.09,11.938C15.129,12.031 15.156,12.137 15.094,12.254C15.031,12.371 15,12.441 14.906,12.543C14.812,12.645 14.711,12.77 14.629,12.848C14.535,12.934 14.441,13.027 14.539,13.211C14.637,13.391 14.977,13.988 15.492,14.477C16.156,15.105 16.688,15.312 16.898,15.41C16.973,15.445 17.035,15.461 17.094,15.461C17.168,15.461 17.23,15.43 17.285,15.371C17.398,15.258 17.73,14.871 17.871,14.691C17.945,14.598 18.012,14.562 18.086,14.562C18.145,14.562 18.203,14.586 18.277,14.613C18.438,14.676 19.301,15.137 19.477,15.23C19.652,15.324 19.77,15.375 19.812,15.449C19.852,15.523 19.844,15.883 19.68,16.293C19.52,16.707 18.781,17.086 18.453,17.105C18.355,17.109 18.262,17.125 18.141,17.125C17.844,17.125 17.379,17.047 16.327,16.594C14.539,15.824 13.453,13.93 13.367,13.809C13.281,13.684 12.668,12.816 12.695,11.941C12.723,11.062 13.195,10.645 13.363,10.473C13.527,10.305 13.711,10.262 13.832,10.262L13.848,10.262Z" style="fill:white;"/>
    </g>
</svg>
